<svg width="104" height="68" viewBox="0 0 104 68" fill="none" xmlns="http://www.w3.org/2000/svg">
<path d="M47.6667 48.1667H56.3333V36.8333H73.6667V31.1667H56.3333V19.8333H47.6667V31.1667H30.3333V36.8333H47.6667V48.1667ZM21.6667 59.5C19.2833 59.5 17.2431 58.9451 15.5458 57.8354C13.8486 56.7257 13 55.3917 13 53.8333V14.1667C13 12.6083 13.8486 11.2743 15.5458 10.1646C17.2431 9.05486 19.2833 8.5 21.6667 8.5H82.3333C84.7167 8.5 86.7569 9.05486 88.4542 10.1646C90.1514 11.2743 91 12.6083 91 14.1667V53.8333C91 55.3917 90.1514 56.7257 88.4542 57.8354C86.7569 58.9451 84.7167 59.5 82.3333 59.5H21.6667ZM21.6667 53.8333H82.3333V14.1667H21.6667V53.8333Z" fill="#FFAB07"/>
</svg>
