<svg width="66" height="53" viewBox="0 0 66 53" fill="none" xmlns="http://www.w3.org/2000/svg">
<path d="M32.5579 26.01C42.8339 26.01 51.1624 20.1882 51.1624 13.005C51.1624 5.82177 42.8339 0 32.5579 0C22.2818 0 13.9534 5.82177 13.9534 13.005C13.9534 20.1882 22.2818 26.01 32.5579 26.01ZM45.581 29.2613H43.1537C39.927 30.2976 36.3369 30.8869 32.5579 30.8869C28.7788 30.8869 25.2033 30.2976 21.962 29.2613H19.5347C8.74993 29.2613 0 35.3777 0 42.9165V47.1431C0 49.8356 3.12497 52.02 6.97669 52.02H58.1391C61.9908 52.02 65.1157 49.8356 65.1157 47.1431V42.9165C65.1157 35.3777 56.3658 29.2613 45.581 29.2613Z" fill="white"/>
</svg>
